<svg width="162" height="36" viewBox="0 0 162 36" fill="none" xmlns="http://www.w3.org/2000/svg">
<rect width="162" height="36" rx="5" fill="#F5F5F6"/>
<path d="M16.25 15.7928V21.375C16.25 21.9717 16.4871 22.544 16.909 22.966C17.331 23.3879 17.9033 23.625 18.5 23.625H27.5C28.0967 23.625 28.669 23.3879 29.091 22.966C29.5129 22.544 29.75 21.9717 29.75 21.375V14.625C29.75 14.0283 29.5129 13.456 29.091 13.034C28.669 12.6121 28.0967 12.375 27.5 12.375H18.5C17.9033 12.375 17.331 12.6121 16.909 13.034C16.4871 13.456 16.25 14.0283 16.25 14.625V15.7928ZM18.5 13.5H27.5C27.7984 13.5 28.0845 13.6185 28.2955 13.8295C28.5065 14.0405 28.625 14.3266 28.625 14.625V15.4575L23 18.486L17.375 15.4575V14.625C17.375 14.3266 17.4935 14.0405 17.7045 13.8295C17.9155 13.6185 18.2016 13.5 18.5 13.5V13.5ZM17.375 16.7355L22.7334 19.62C22.8153 19.6641 22.9069 19.6872 23 19.6872C23.0931 19.6872 23.1847 19.6641 23.2666 19.62L28.625 16.7355V21.375C28.625 21.6734 28.5065 21.9595 28.2955 22.1705C28.0845 22.3815 27.7984 22.5 27.5 22.5H18.5C18.2016 22.5 17.9155 22.3815 17.7045 22.1705C17.4935 21.9595 17.375 21.6734 17.375 21.375V16.7355Z" fill="#6011ED"/>
<path d="M49.044 23H47.448L42.646 15.734V23H41.05V13.256H42.646L47.448 20.508V13.256H49.044V23ZM54.4858 23.126C53.7578 23.126 53.0998 22.9627 52.5118 22.636C51.9238 22.3 51.4618 21.8333 51.1258 21.236C50.7898 20.6293 50.6218 19.9293 50.6218 19.136C50.6218 18.352 50.7945 17.6567 51.1398 17.05C51.4852 16.4433 51.9565 15.9767 52.5538 15.65C53.1512 15.3233 53.8185 15.16 54.5558 15.16C55.2932 15.16 55.9605 15.3233 56.5578 15.65C57.1552 15.9767 57.6265 16.4433 57.9718 17.05C58.3172 17.6567 58.4898 18.352 58.4898 19.136C58.4898 19.92 58.3125 20.6153 57.9578 21.222C57.6032 21.8287 57.1178 22.3 56.5018 22.636C55.8952 22.9627 55.2232 23.126 54.4858 23.126ZM54.4858 21.74C54.8965 21.74 55.2792 21.642 55.6338 21.446C55.9978 21.25 56.2918 20.956 56.5158 20.564C56.7398 20.172 56.8518 19.696 56.8518 19.136C56.8518 18.576 56.7445 18.1047 56.5298 17.722C56.3152 17.33 56.0305 17.036 55.6758 16.84C55.3212 16.644 54.9385 16.546 54.5278 16.546C54.1172 16.546 53.7345 16.644 53.3798 16.84C53.0345 17.036 52.7592 17.33 52.5538 17.722C52.3485 18.1047 52.2458 18.576 52.2458 19.136C52.2458 19.9667 52.4558 20.6107 52.8758 21.068C53.3052 21.516 53.8418 21.74 54.4858 21.74ZM67.0536 15.286V23H65.4576V22.09C65.2056 22.4073 64.8742 22.6593 64.4636 22.846C64.0622 23.0233 63.6329 23.112 63.1756 23.112C62.5689 23.112 62.0229 22.986 61.5376 22.734C61.0616 22.482 60.6836 22.1087 60.4036 21.614C60.1329 21.1193 59.9976 20.522 59.9976 19.822V15.286H61.5796V19.584C61.5796 20.2747 61.7522 20.8067 62.0976 21.18C62.4429 21.544 62.9142 21.726 63.5116 21.726C64.1089 21.726 64.5802 21.544 64.9256 21.18C65.2802 20.8067 65.4576 20.2747 65.4576 19.584V15.286H67.0536ZM71.9594 23.126C71.3527 23.126 70.8067 23.0187 70.3214 22.804C69.8454 22.58 69.4674 22.2813 69.1874 21.908C68.9074 21.5253 68.758 21.1007 68.7394 20.634H70.3914C70.4194 20.9607 70.5734 21.236 70.8534 21.46C71.1427 21.6747 71.502 21.782 71.9314 21.782C72.3794 21.782 72.7247 21.698 72.9674 21.53C73.2194 21.3527 73.3454 21.1287 73.3454 20.858C73.3454 20.5687 73.2054 20.354 72.9254 20.214C72.6547 20.074 72.2207 19.92 71.6234 19.752C71.0447 19.5933 70.5734 19.4393 70.2094 19.29C69.8454 19.1407 69.528 18.912 69.2574 18.604C68.996 18.296 68.8654 17.89 68.8654 17.386C68.8654 16.9753 68.9867 16.602 69.2294 16.266C69.472 15.9207 69.8174 15.65 70.2654 15.454C70.7227 15.258 71.2454 15.16 71.8334 15.16C72.7107 15.16 73.4154 15.384 73.9474 15.832C74.4887 16.2707 74.778 16.8727 74.8154 17.638H73.2194C73.1914 17.2927 73.0514 17.0173 72.7994 16.812C72.5474 16.6067 72.2067 16.504 71.7774 16.504C71.3574 16.504 71.0354 16.5833 70.8114 16.742C70.5874 16.9007 70.4754 17.1107 70.4754 17.372C70.4754 17.5773 70.55 17.75 70.6994 17.89C70.8487 18.03 71.0307 18.142 71.2454 18.226C71.46 18.3007 71.7774 18.3987 72.1974 18.52C72.7574 18.6693 73.2147 18.8233 73.5694 18.982C73.9334 19.1313 74.246 19.3553 74.5074 19.654C74.7687 19.9527 74.904 20.3493 74.9134 20.844C74.9134 21.2827 74.792 21.6747 74.5494 22.02C74.3067 22.3653 73.9614 22.636 73.5134 22.832C73.0747 23.028 72.5567 23.126 71.9594 23.126ZM79.7426 19.136C79.7426 18.3427 79.9013 17.6473 80.2186 17.05C80.5453 16.4433 80.9933 15.9767 81.5626 15.65C82.1319 15.3233 82.7853 15.16 83.5226 15.16C84.4559 15.16 85.2259 15.384 85.8326 15.832C86.4486 16.2707 86.8639 16.9007 87.0786 17.722H85.3566C85.2166 17.3393 84.9926 17.0407 84.6846 16.826C84.3766 16.6113 83.9893 16.504 83.5226 16.504C82.8693 16.504 82.3466 16.7373 81.9546 17.204C81.5719 17.6613 81.3806 18.3053 81.3806 19.136C81.3806 19.9667 81.5719 20.6153 81.9546 21.082C82.3466 21.5487 82.8693 21.782 83.5226 21.782C84.4466 21.782 85.0579 21.376 85.3566 20.564H87.0786C86.8546 21.348 86.4346 21.9733 85.8186 22.44C85.2026 22.8973 84.4373 23.126 83.5226 23.126C82.7853 23.126 82.1319 22.9627 81.5626 22.636C80.9933 22.3 80.5453 21.8333 80.2186 21.236C79.9013 20.6293 79.7426 19.9293 79.7426 19.136ZM92.0151 23.126C91.2871 23.126 90.6291 22.9627 90.0411 22.636C89.4531 22.3 88.9911 21.8333 88.6551 21.236C88.3191 20.6293 88.1511 19.9293 88.1511 19.136C88.1511 18.352 88.3238 17.6567 88.6691 17.05C89.0145 16.4433 89.4858 15.9767 90.0831 15.65C90.6805 15.3233 91.3478 15.16 92.0851 15.16C92.8225 15.16 93.4898 15.3233 94.0871 15.65C94.6845 15.9767 95.1558 16.4433 95.5011 17.05C95.8465 17.6567 96.0191 18.352 96.0191 19.136C96.0191 19.92 95.8418 20.6153 95.4871 21.222C95.1325 21.8287 94.6471 22.3 94.0311 22.636C93.4245 22.9627 92.7525 23.126 92.0151 23.126ZM92.0151 21.74C92.4258 21.74 92.8085 21.642 93.1631 21.446C93.5271 21.25 93.8211 20.956 94.0451 20.564C94.2691 20.172 94.3811 19.696 94.3811 19.136C94.3811 18.576 94.2738 18.1047 94.0591 17.722C93.8445 17.33 93.5598 17.036 93.2051 16.84C92.8505 16.644 92.4678 16.546 92.0571 16.546C91.6465 16.546 91.2638 16.644 90.9091 16.84C90.5638 17.036 90.2885 17.33 90.0831 17.722C89.8778 18.1047 89.7751 18.576 89.7751 19.136C89.7751 19.9667 89.9851 20.6107 90.4051 21.068C90.8345 21.516 91.3711 21.74 92.0151 21.74ZM101.489 15.16C102.096 15.16 102.637 15.286 103.113 15.538C103.598 15.79 103.976 16.1633 104.247 16.658C104.518 17.1527 104.653 17.75 104.653 18.45V23H103.071V18.688C103.071 17.9973 102.898 17.47 102.553 17.106C102.208 16.7327 101.736 16.546 101.139 16.546C100.542 16.546 100.066 16.7327 99.7109 17.106C99.3655 17.47 99.1929 17.9973 99.1929 18.688V23H97.5969V15.286H99.1929V16.168C99.4542 15.8507 99.7855 15.6033 100.187 15.426C100.598 15.2487 101.032 15.16 101.489 15.16ZM108.551 16.588V20.858C108.551 21.1473 108.616 21.3573 108.747 21.488C108.887 21.6093 109.12 21.67 109.447 21.67H110.427V23H109.167C108.448 23 107.897 22.832 107.515 22.496C107.132 22.16 106.941 21.614 106.941 20.858V16.588H106.031V15.286H106.941V13.368H108.551V15.286H110.427V16.588H108.551ZM111.366 19.108C111.366 18.3333 111.524 17.6473 111.842 17.05C112.168 16.4527 112.607 15.9907 113.158 15.664C113.718 15.328 114.334 15.16 115.006 15.16C115.612 15.16 116.14 15.2813 116.588 15.524C117.045 15.7573 117.409 16.0513 117.68 16.406V15.286H119.29V23H117.68V21.852C117.409 22.216 117.04 22.5193 116.574 22.762C116.107 23.0047 115.575 23.126 114.978 23.126C114.315 23.126 113.708 22.958 113.158 22.622C112.607 22.2767 112.168 21.8007 111.842 21.194C111.524 20.578 111.366 19.8827 111.366 19.108ZM117.68 19.136C117.68 18.604 117.568 18.142 117.344 17.75C117.129 17.358 116.844 17.0593 116.49 16.854C116.135 16.6487 115.752 16.546 115.342 16.546C114.931 16.546 114.548 16.6487 114.194 16.854C113.839 17.05 113.55 17.344 113.326 17.736C113.111 18.1187 113.004 18.576 113.004 19.108C113.004 19.64 113.111 20.1067 113.326 20.508C113.55 20.9093 113.839 21.2173 114.194 21.432C114.558 21.6373 114.94 21.74 115.342 21.74C115.752 21.74 116.135 21.6373 116.49 21.432C116.844 21.2267 117.129 20.928 117.344 20.536C117.568 20.1347 117.68 19.668 117.68 19.136ZM120.854 19.136C120.854 18.3427 121.013 17.6473 121.33 17.05C121.657 16.4433 122.105 15.9767 122.674 15.65C123.243 15.3233 123.897 15.16 124.634 15.16C125.567 15.16 126.337 15.384 126.944 15.832C127.56 16.2707 127.975 16.9007 128.19 17.722H126.468C126.328 17.3393 126.104 17.0407 125.796 16.826C125.488 16.6113 125.101 16.504 124.634 16.504C123.981 16.504 123.458 16.7373 123.066 17.204C122.683 17.6613 122.492 18.3053 122.492 19.136C122.492 19.9667 122.683 20.6153 123.066 21.082C123.458 21.5487 123.981 21.782 124.634 21.782C125.558 21.782 126.169 21.376 126.468 20.564H128.19C127.966 21.348 127.546 21.9733 126.93 22.44C126.314 22.8973 125.549 23.126 124.634 23.126C123.897 23.126 123.243 22.9627 122.674 22.636C122.105 22.3 121.657 21.8333 121.33 21.236C121.013 20.6293 120.854 19.9293 120.854 19.136ZM131.642 16.588V20.858C131.642 21.1473 131.708 21.3573 131.838 21.488C131.978 21.6093 132.212 21.67 132.538 21.67H133.518V23H132.258C131.54 23 130.989 22.832 130.606 22.496C130.224 22.16 130.032 21.614 130.032 20.858V16.588H129.122V15.286H130.032V13.368H131.642V15.286H133.518V16.588H131.642ZM142.059 18.954C142.059 19.2433 142.041 19.5047 142.003 19.738H136.109C136.156 20.354 136.385 20.8487 136.795 21.222C137.206 21.5953 137.71 21.782 138.307 21.782C139.166 21.782 139.773 21.4227 140.127 20.704H141.849C141.616 21.4133 141.191 21.9967 140.575 22.454C139.969 22.902 139.213 23.126 138.307 23.126C137.57 23.126 136.907 22.9627 136.319 22.636C135.741 22.3 135.283 21.8333 134.947 21.236C134.621 20.6293 134.457 19.9293 134.457 19.136C134.457 18.3427 134.616 17.6473 134.933 17.05C135.26 16.4433 135.713 15.9767 136.291 15.65C136.879 15.3233 137.551 15.16 138.307 15.16C139.035 15.16 139.684 15.3187 140.253 15.636C140.823 15.9533 141.266 16.4013 141.583 16.98C141.901 17.5493 142.059 18.2073 142.059 18.954ZM140.393 18.45C140.384 17.862 140.174 17.3907 139.763 17.036C139.353 16.6813 138.844 16.504 138.237 16.504C137.687 16.504 137.215 16.6813 136.823 17.036C136.431 17.3813 136.198 17.8527 136.123 18.45H140.393ZM145.226 16.406C145.459 16.014 145.767 15.7107 146.15 15.496C146.542 15.272 147.004 15.16 147.536 15.16V16.812H147.13C146.505 16.812 146.029 16.9707 145.702 17.288C145.385 17.6053 145.226 18.156 145.226 18.94V23H143.63V15.286H145.226V16.406Z" fill="#6011ED"/>
</svg>
