<svg width="162" height="36" viewBox="0 0 162 36" fill="none" xmlns="http://www.w3.org/2000/svg">
<rect width="136" height="36" rx="5" fill="#F5F5F6"/>
<path d="M17.7373 13.3977C18.6436 13.3977 19.3783 12.663 19.3783 11.7567C19.3783 10.8504 18.6436 10.1157 17.7373 10.1157C16.831 10.1157 16.0963 10.8504 16.0963 11.7567C16.0963 12.663 16.831 13.3977 17.7373 13.3977Z" fill="#6011ED"/>
<path d="M20.9278 14.6413V23.7455H23.7545V19.2433C23.7545 18.0553 23.978 16.9048 25.451 16.9048C26.9038 16.9048 26.9218 18.263 26.9218 19.3183V23.7463H29.75V18.7535C29.75 16.301 29.222 14.4163 26.3555 14.4163C24.9793 14.4163 24.0568 15.1715 23.6795 15.8863H23.6413V14.6413H20.9278V14.6413ZM16.3213 14.6413H19.1525V23.7455H16.3213V14.6413Z" fill="#6011ED"/>
<path d="M49.044 23H47.448L42.646 15.734V23H41.05V13.256H42.646L47.448 20.508V13.256H49.044V23ZM54.4858 23.126C53.7578 23.126 53.0998 22.9627 52.5118 22.636C51.9238 22.3 51.4618 21.8333 51.1258 21.236C50.7898 20.6293 50.6218 19.9293 50.6218 19.136C50.6218 18.352 50.7945 17.6567 51.1398 17.05C51.4852 16.4433 51.9565 15.9767 52.5538 15.65C53.1512 15.3233 53.8185 15.16 54.5558 15.16C55.2932 15.16 55.9605 15.3233 56.5578 15.65C57.1552 15.9767 57.6265 16.4433 57.9718 17.05C58.3172 17.6567 58.4898 18.352 58.4898 19.136C58.4898 19.92 58.3125 20.6153 57.9578 21.222C57.6032 21.8287 57.1178 22.3 56.5018 22.636C55.8952 22.9627 55.2232 23.126 54.4858 23.126ZM54.4858 21.74C54.8965 21.74 55.2792 21.642 55.6338 21.446C55.9978 21.25 56.2918 20.956 56.5158 20.564C56.7398 20.172 56.8518 19.696 56.8518 19.136C56.8518 18.576 56.7445 18.1047 56.5298 17.722C56.3152 17.33 56.0305 17.036 55.6758 16.84C55.3212 16.644 54.9385 16.546 54.5278 16.546C54.1172 16.546 53.7345 16.644 53.3798 16.84C53.0345 17.036 52.7592 17.33 52.5538 17.722C52.3485 18.1047 52.2458 18.576 52.2458 19.136C52.2458 19.9667 52.4558 20.6107 52.8758 21.068C53.3052 21.516 53.8418 21.74 54.4858 21.74ZM67.0536 15.286V23H65.4576V22.09C65.2056 22.4073 64.8742 22.6593 64.4636 22.846C64.0622 23.0233 63.6329 23.112 63.1756 23.112C62.5689 23.112 62.0229 22.986 61.5376 22.734C61.0616 22.482 60.6836 22.1087 60.4036 21.614C60.1329 21.1193 59.9976 20.522 59.9976 19.822V15.286H61.5796V19.584C61.5796 20.2747 61.7522 20.8067 62.0976 21.18C62.4429 21.544 62.9142 21.726 63.5116 21.726C64.1089 21.726 64.5802 21.544 64.9256 21.18C65.2802 20.8067 65.4576 20.2747 65.4576 19.584V15.286H67.0536ZM71.9594 23.126C71.3527 23.126 70.8067 23.0187 70.3214 22.804C69.8454 22.58 69.4674 22.2813 69.1874 21.908C68.9074 21.5253 68.758 21.1007 68.7394 20.634H70.3914C70.4194 20.9607 70.5734 21.236 70.8534 21.46C71.1427 21.6747 71.502 21.782 71.9314 21.782C72.3794 21.782 72.7247 21.698 72.9674 21.53C73.2194 21.3527 73.3454 21.1287 73.3454 20.858C73.3454 20.5687 73.2054 20.354 72.9254 20.214C72.6547 20.074 72.2207 19.92 71.6234 19.752C71.0447 19.5933 70.5734 19.4393 70.2094 19.29C69.8454 19.1407 69.528 18.912 69.2574 18.604C68.996 18.296 68.8654 17.89 68.8654 17.386C68.8654 16.9753 68.9867 16.602 69.2294 16.266C69.472 15.9207 69.8174 15.65 70.2654 15.454C70.7227 15.258 71.2454 15.16 71.8334 15.16C72.7107 15.16 73.4154 15.384 73.9474 15.832C74.4887 16.2707 74.778 16.8727 74.8154 17.638H73.2194C73.1914 17.2927 73.0514 17.0173 72.7994 16.812C72.5474 16.6067 72.2067 16.504 71.7774 16.504C71.3574 16.504 71.0354 16.5833 70.8114 16.742C70.5874 16.9007 70.4754 17.1107 70.4754 17.372C70.4754 17.5773 70.55 17.75 70.6994 17.89C70.8487 18.03 71.0307 18.142 71.2454 18.226C71.46 18.3007 71.7774 18.3987 72.1974 18.52C72.7574 18.6693 73.2147 18.8233 73.5694 18.982C73.9334 19.1313 74.246 19.3553 74.5074 19.654C74.7687 19.9527 74.904 20.3493 74.9134 20.844C74.9134 21.2827 74.792 21.6747 74.5494 22.02C74.3067 22.3653 73.9614 22.636 73.5134 22.832C73.0747 23.028 72.5567 23.126 71.9594 23.126ZM83.0746 23.126C82.4679 23.126 81.9219 23.0187 81.4366 22.804C80.9606 22.58 80.5826 22.2813 80.3026 21.908C80.0226 21.5253 79.8733 21.1007 79.8546 20.634H81.5066C81.5346 20.9607 81.6886 21.236 81.9686 21.46C82.2579 21.6747 82.6173 21.782 83.0466 21.782C83.4946 21.782 83.8399 21.698 84.0826 21.53C84.3346 21.3527 84.4606 21.1287 84.4606 20.858C84.4606 20.5687 84.3206 20.354 84.0406 20.214C83.7699 20.074 83.3359 19.92 82.7386 19.752C82.1599 19.5933 81.6886 19.4393 81.3246 19.29C80.9606 19.1407 80.6433 18.912 80.3726 18.604C80.1113 18.296 79.9806 17.89 79.9806 17.386C79.9806 16.9753 80.1019 16.602 80.3446 16.266C80.5873 15.9207 80.9326 15.65 81.3806 15.454C81.8379 15.258 82.3606 15.16 82.9486 15.16C83.8259 15.16 84.5306 15.384 85.0626 15.832C85.6039 16.2707 85.8933 16.8727 85.9306 17.638H84.3346C84.3066 17.2927 84.1666 17.0173 83.9146 16.812C83.6626 16.6067 83.3219 16.504 82.8926 16.504C82.4726 16.504 82.1506 16.5833 81.9266 16.742C81.7026 16.9007 81.5906 17.1107 81.5906 17.372C81.5906 17.5773 81.6653 17.75 81.8146 17.89C81.9639 18.03 82.1459 18.142 82.3606 18.226C82.5753 18.3007 82.8926 18.3987 83.3126 18.52C83.8726 18.6693 84.3299 18.8233 84.6846 18.982C85.0486 19.1313 85.3613 19.3553 85.6226 19.654C85.8839 19.9527 86.0193 20.3493 86.0286 20.844C86.0286 21.2827 85.9073 21.6747 85.6646 22.02C85.4219 22.3653 85.0766 22.636 84.6286 22.832C84.1899 23.028 83.6719 23.126 83.0746 23.126ZM94.7391 15.286V23H93.1431V22.09C92.8911 22.4073 92.5598 22.6593 92.1491 22.846C91.7478 23.0233 91.3185 23.112 90.8611 23.112C90.2545 23.112 89.7085 22.986 89.2231 22.734C88.7471 22.482 88.3691 22.1087 88.0891 21.614C87.8185 21.1193 87.6831 20.522 87.6831 19.822V15.286H89.2651V19.584C89.2651 20.2747 89.4378 20.8067 89.7831 21.18C90.1285 21.544 90.5998 21.726 91.1971 21.726C91.7945 21.726 92.2658 21.544 92.6111 21.18C92.9658 20.8067 93.1431 20.2747 93.1431 19.584V15.286H94.7391ZM97.6569 14.264C97.3676 14.264 97.1249 14.166 96.9289 13.97C96.7329 13.774 96.6349 13.5313 96.6349 13.242C96.6349 12.9527 96.7329 12.71 96.9289 12.514C97.1249 12.318 97.3676 12.22 97.6569 12.22C97.9369 12.22 98.1749 12.318 98.3709 12.514C98.5669 12.71 98.6649 12.9527 98.6649 13.242C98.6649 13.5313 98.5669 13.774 98.3709 13.97C98.1749 14.166 97.9369 14.264 97.6569 14.264ZM98.4409 15.286V23H96.8449V15.286H98.4409ZM103.518 21.572L105.702 15.286H107.396L104.456 23H102.552L99.6263 15.286H101.334L103.518 21.572ZM110.199 16.406C110.432 16.014 110.74 15.7107 111.123 15.496C111.515 15.272 111.977 15.16 112.509 15.16V16.812H112.103C111.477 16.812 111.001 16.9707 110.675 17.288C110.357 17.6053 110.199 18.156 110.199 18.94V23H108.603V15.286H110.199V16.406ZM121.046 18.954C121.046 19.2433 121.027 19.5047 120.99 19.738H115.096C115.142 20.354 115.371 20.8487 115.782 21.222C116.192 21.5953 116.696 21.782 117.294 21.782C118.152 21.782 118.759 21.4227 119.114 20.704H120.836C120.602 21.4133 120.178 21.9967 119.562 22.454C118.955 22.902 118.199 23.126 117.294 23.126C116.556 23.126 115.894 22.9627 115.306 22.636C114.727 22.3 114.27 21.8333 113.934 21.236C113.607 20.6293 113.444 19.9293 113.444 19.136C113.444 18.3427 113.602 17.6473 113.92 17.05C114.246 16.4433 114.699 15.9767 115.278 15.65C115.866 15.3233 116.538 15.16 117.294 15.16C118.022 15.16 118.67 15.3187 119.24 15.636C119.809 15.9533 120.252 16.4013 120.57 16.98C120.887 17.5493 121.046 18.2073 121.046 18.954ZM119.38 18.45C119.37 17.862 119.16 17.3907 118.75 17.036C118.339 16.6813 117.83 16.504 117.224 16.504C116.673 16.504 116.202 16.6813 115.81 17.036C115.418 17.3813 115.184 17.8527 115.11 18.45H119.38Z" fill="#6011ED"/>
</svg>
