<svg width="233" height="64" viewBox="0 0 233 64" fill="none" xmlns="http://www.w3.org/2000/svg">
<path d="M86.7656 10.8271H101.663C112.525 10.8271 119.705 15.8714 119.705 25.7243C119.705 30.4121 117.45 36.5257 109.438 39.1374L121.902 55.104H108.548L98.3987 40.4444H98.0422V55.104H86.7656V10.8271ZM101.425 31.8962C105.698 31.8962 108.368 29.9369 108.368 26.4351C108.368 22.9333 105.579 20.9739 101.484 20.9739H98.0422V31.8941H101.425V31.8962Z" fill="white"/>
<path d="M147.483 9.75781C160.6 9.75781 170.63 19.3732 170.63 32.9634C170.63 46.5536 160.6 56.169 147.483 56.169C134.366 56.169 124.277 46.4953 124.277 32.9634C124.277 19.4315 134.426 9.75781 147.483 9.75781ZM159.293 32.9634C159.293 24.7133 153.476 19.9651 147.483 19.9651C141.49 19.9651 135.612 24.7133 135.612 32.9634C135.612 41.2135 141.369 45.9012 147.483 45.9012C153.596 45.9012 159.293 41.2113 159.293 32.9634Z" fill="white"/>
<path d="M199.948 32.5486L216.924 55.1018H203.63L188.257 34.3892V55.1018H176.98V10.825H188.257V31.1833L203.45 10.825H216.449L199.948 32.5464V32.5486Z" fill="white"/>
<path d="M220.725 10.8271H232.001V55.104H220.725V10.8271Z" fill="white"/>
<path d="M24.3589 21.8618C22.1036 21.8618 20.2695 23.6959 20.2695 25.9512C20.2695 28.2065 22.1036 30.0406 24.3589 30.0406C26.6142 30.0406 28.4483 28.2065 28.4483 25.9512C28.4483 23.6959 26.6142 21.8618 24.3589 21.8618Z" fill="white"/>
<path d="M48.2712 27.1284C46.3658 26.0051 44.4605 26.0051 42.5573 27.1284C41.9071 27.513 41.084 27.042 41.084 26.2859C41.084 23.8945 43.0239 21.9546 45.4153 21.9546C47.8067 21.9546 49.7467 23.8945 49.7467 26.2859C49.7467 27.042 48.9236 27.513 48.2734 27.1284H48.2712Z" fill="white"/>
<path d="M56.6501 23.2056V9.76225C56.6501 8.72964 56.3952 7.9757 55.894 7.52204C55.2459 6.93661 52.969 6.8178 50.0332 6.8178V0H53.5566C56.419 0 58.8471 0.83602 60.6379 2.45406C62.526 4.16067 63.5241 6.58232 63.5241 9.45332V23.4475C63.5241 26.1133 64.2607 27.8804 67.9245 28.4464L69.7737 28.7316V35.0287L67.9245 35.3139C64.2607 35.8799 63.5241 37.647 63.5241 40.3127V54.307C63.5241 57.1801 62.526 59.5996 60.6379 61.3062C58.8471 62.9243 56.4211 63.7603 53.5566 63.7603H50.0332V56.9425C52.969 56.9425 55.2459 56.8237 55.894 56.2382C56.3952 55.7846 56.6501 55.0328 56.6501 53.998V40.5547C56.6501 36.2018 57.9916 33.5446 59.7479 31.9352C59.7285 31.9158 59.7069 31.8963 59.6875 31.8769C59.7069 31.8575 59.7285 31.838 59.7479 31.8186C57.9916 30.207 56.6501 27.552 56.6501 23.1991V23.2056Z" fill="white"/>
<path d="M13.1236 23.2056V9.76225C13.1236 8.72964 13.3785 7.9757 13.8797 7.52204C14.5278 6.93661 16.8047 6.8178 19.7405 6.8178V0H16.2171C13.3548 0 10.9266 0.83602 9.13578 2.45406C7.24771 4.16067 6.24964 6.58232 6.24964 9.45332V23.4475C6.24964 26.1133 5.51299 27.8804 1.84918 28.4464L0 28.7316V35.0287L1.84918 35.3139C5.51299 35.8799 6.24964 37.647 6.24964 40.3127V54.307C6.24964 57.1801 7.24771 59.5996 9.13578 61.3062C10.9266 62.9243 13.3526 63.7603 16.2171 63.7603H19.7405V56.9425C16.8047 56.9425 14.5278 56.8237 13.8797 56.2382C13.3785 55.7846 13.1236 55.0328 13.1236 53.998V40.5547C13.1236 36.2018 11.7821 33.5446 10.0258 31.9352C10.0453 31.9158 10.0668 31.8963 10.0863 31.8769C10.0668 31.8575 10.0453 31.838 10.0258 31.8186C11.7821 30.207 13.1236 27.552 13.1236 23.1991V23.2056Z" fill="white"/>
</svg>
