<?xml version="1.0" encoding="utf-8"?>
<!-- Generator: Adobe Illustrator 16.0.0, SVG Export Plug-In . SVG Version: 6.00 Build 0)  -->
<!DOCTYPE svg PUBLIC "-//W3C//DTD SVG 1.1//EN" "http://www.w3.org/Graphics/SVG/1.1/DTD/svg11.dtd">
<svg version="1.1" id="Calque_1" xmlns="http://www.w3.org/2000/svg" xmlns:xlink="http://www.w3.org/1999/xlink" x="0px" y="0px"
	 width="42.75px" height="43.402px" viewBox="0 0 42.75 43.402" enable-background="new 0 0 42.75 43.402" xml:space="preserve">
<path fill-rule="evenodd" clip-rule="evenodd" d="M41.032,22.591c-1.212-4.853-1.655-5.298-1.347-7.069
	c0.308-1.771,1.039-1.463,1.214-1.366c0.172,0.096,0.558-0.038,0.402-0.865c-0.151-0.83-0.943-1.484-1.616-1.6
	c0-0.637-0.018-1.693-1.349-2.062c-0.096,0-2.155,0.558-1.886,4.238c0.27,3.678,0.77,6.797-1.117,6.971
	c-0.77,0.078-1.212-1.309-0.559-3.023c0.654-1.714,2.137-5.488,1.753-7.722c-0.386-2.234-2.08-5.567-4.68-6.915
	c-2.6-1.347-4.236-1.616-5.701-0.865c-0.499-0.309-1.849-1.138-3.736-1.116c-1.887,0.018-3.428,0.846-3.428,0.846
	s-1.078-0.383-2.29-0.271c-1.214,0.119-3.93,0.946-5.009,4.354c-0.02,0.065-0.037,0.13-0.057,0.194
	c0.028-0.188-0.341-0.192-0.341-0.192S8.019,5.881,6.683,8.555c-0.792,0.644-2.724,1.979-2.476,7.824
	c-0.694-0.198-1.88-0.643-2.623,1.189c-0.742,1.831,0.05,2.178,0.05,2.178s0.99-1.336,0.99,0.248c0,1.585-0.2,2.772-0.544,3.467
	c-0.099,0.196,0.098,0.594,0.344,0.495c-0.196,0.543-1.039,2.624,0.15,5.595c1.187,2.973,2.525,3.417,3.366,3.665
	c0.224,0.066,0.529,0.107,0.866,0.063c-0.056,0.021-0.1,0.132-0.065,0.451c0.072,0.664,0.956,3.997,3.613,3.959
	s3.602-2.851,4.181-5.45c-0.039,2-0.097,5.488,1.558,7.241c1.656,1.752,3.178,2.812,6.125,2.869
	c2.946,0.058,5.989-1.403,7.857-3.755c1.579-0.077,5.007-0.462,8.109-3.873C41.284,31.315,42.246,27.444,41.032,22.591
	 M5.429,28.085c-1.216,0.019-1.889-1.12-1.658-1.715c0.233-0.6,0.539-0.925,0.829-0.925s0.636,0.424,0.597,1.002
	c-0.038,0.578,0.271,0.153,0.598-0.31c0.327-0.464,0.751-1.021,0.596-1.811c-0.152-0.789-0.808-1.601-1.579-1.542
	c-0.77,0.057-1.137,0.172-1.137,0.172s1.021-1.676,1.117-2.679c0.098-1.002,0.098-1.117,0.098-1.117s0.826,2.448,1.194,3.334
	c0.367,0.889,0.695,2.988,0.675,3.585C6.739,26.679,6.643,28.066,5.429,28.085 M7.871,33.713c-0.693,0.146-0.885-0.3-0.913-0.355
	c-0.012-0.026-0.073-0.084-0.129-0.084c0.928-0.139,2.094-0.965,2.526-3.921c0.594-4.06-1.385-10.646-1.385-10.646
	s2.227,4.209,2.129,8.716C10,31.929,8.564,33.562,7.871,33.713 M12.358,29.292c-0.078,0.156-0.134,0.059-0.116-0.19
	c0.019-0.252,0.019-6.491-0.712-9.131c-0.733-2.637-1.541-7.259-1.484-8.896c0.058-1.638,0.22-3.683,1.195-4.351
	c0.21-0.146,0.317-0.256,0.364-0.336c-0.799,2.695-0.846,5.458-0.846,6.132c0,0.693,0.405,4.737,1.04,7.567
	C12.435,22.918,12.435,29.139,12.358,29.292 M26.493,5.035c0.786,0.716,0.903,2.82,0.925,3.442c0.022,0.623-0.3,1.526-0.51,1.988
	c-0.878-0.577-1.132-1.226-1.225-2.889C25.592,5.913,26.493,5.035,26.493,5.035 M19.4,4.827c0,0,0.414,0.693,0.438,1.824
	c0.023,1.134-0.276,3.052-1.641,3.376C18.197,8.941,18.127,6.651,19.4,4.827 M13.483,8.733c1.224-5.569,3.904-4.785,3.904-4.785
	s-0.3,0.371-0.946,1.825c-0.648,1.455-0.763,2.683-0.763,2.683s-0.509-0.115-0.369-1.458c0.015-0.162,0.276-0.206,0.138-0.415
	c-0.138-0.206-0.948,0.116-1.411,1.132c-0.853,2.126,0.763,3.745,1.225,4.091c-0.345,3.514,1.295,6.587,1.295,6.587
	s-0.046-0.093-0.671,0.093c-0.624,0.184-0.415,1.248-0.137,1.894c0.278,0.649,0.093,0.51-0.024,0.396
	C15.216,20.195,12.257,14.303,13.483,8.733 M14.984,30.155c0.692-3.338-0.017-7.706-0.023-7.74c0.004,0.012,0.044,0.051,0.439,0.09
	c0.463,0.048,0.763-0.438,0.97-0.67c0.949,1.504,2.404,2.659,4.369,3.282c1.964,0.625,3.975-0.116,3.975-0.116l0.046,0.141
	c0.045,0.346,0.277,0.972,0.416,1.339c-0.972,0.603-1.526,1.872-1.526,1.896c-0.438-2.542-3.096-4.159-5.383-2.865
	C15.977,26.805,14.984,30.155,14.984,30.155 M22.264,39.768c-2.542,0.115-4.644-3.211-4.69-6.699
	c-0.047-3.49,2.148-5.408,3.071-5.338c0.925,0.067,1.087,1.13,1.041,1.408c-0.046,0.277-0.185,1.065-0.855,1.179
	c-0.669,0.115-0.854-0.901-0.854-0.901s-1.434,0.879-1.573,2.865c-0.137,1.987,1.641,2.31,1.965,2.288
	c0.324-0.023,2.265-0.44,2.843-2.472c0.091,0.668,0.162,3.464,3.189,5.499C26.401,37.597,24.805,39.653,22.264,39.768
	 M27.533,34.637c0,0-1.248-0.76-1.179-2.656c0.07-1.896,0.786-2.312,0.786-2.312S28.227,31.866,27.533,34.637 M26.725,21.997
	c0-0.969,0.3-1.687,0.738-2.448c0.441-0.763,1.087-0.625,0.834,0.367C28.042,20.912,26.725,21.997,26.725,21.997 M30.561,31.172
	l-1.203-3.167c0,0,1.179-0.391,1.64-0.113c2.04,1.224,1.273,2.54,0.902,2.68c-0.367,0.14-0.761-0.185-0.947-0.161
	C30.884,30.801,30.561,31.172,30.561,31.172 M31.253,35.424c0.346-1.501-0.045-2.379-0.136-2.818
	c2.032,0.369,4.018-0.578,4.228-3.236c0.207-2.656-2.958-3.743-2.958-3.743s0.438-0.368,0.116-0.949
	c-0.326-0.578-1.039-0.762-1.135-0.785c-0.092-0.021-0.207-0.021-0.392,0.186c-0.185,0.209-0.556,0.325-1.179,0.3
	c-0.623-0.023-1.918,0.371-2.171,0.487c-0.393-0.139-0.44-1.064-0.44-1.064s0.764-0.393,1.71-1.571
	c0.947-1.179,2.335-3.906,1.179-4.876c-1.157-0.971-2.311-0.531-4.022,0.878c-1.709,1.41-1.409,4.506-1.409,4.506
	s-0.554,0.115-0.878,0.07c-0.323-0.047-1.248,0.253-3.259-2.241c-2.01-2.496-2.334-7.397-2.38-7.95
	c3.329-0.301,3.767-2.588,3.953-4.714c0.184-2.128-1.249-4.044-1.249-4.044s0.625-0.486,1.803-0.531
	c1.178-0.047,1.917,0.554,1.917,0.554s-1.384,0.924-1.64,4.044c-0.254,3.12,2.564,5.062,2.564,5.062s-0.461,1.062-1.663,1.155
	c-1.2,0.093-1.64-1.873-1.663-2.497c-0.024-0.623,0.255-1.315,0.023-1.315c-0.578,0-1.825,1.687-2.151,3.535
	c-0.322,1.847,1.688,4.507,4.739,4.345c3.051-0.161,4.02-3.397,4.02-3.397s2.753,0.624,3.63-1.132
	c1.964-4.112-1.111-4.877-1.111-4.877s0.117,0.324,0.046,1.271c-0.069,1.641-1.526,1.57-1.526,1.57l0.211-2.103
	c0.208-2.102-1.411-4.784-1.573-5.132c4.598,0.44,4.875,6.081,4.668,7.951c-0.206,1.873-2.217,6.125-2.38,8.319
	c-0.161,2.195,1.34,4.392,3.676,4.438c2.333,0.046,3.235-2.266,3.235-2.266s0.3,1.595,0.324,3.1
	C38.071,34.755,31.253,35.424,31.253,35.424"/>
</svg>
